<svg width="82" height="82" viewBox="0 0 82 82" fill="none" xmlns="http://www.w3.org/2000/svg">
<path d="M3.20801 0.470703H17.1167V4.95312H8.89893V16.1812H15.249V20.6636H8.89893V33.5176H17.3364V38H3.20801V0.470703ZM25.8179 19.1035L18.9624 0.470703H25.0488L28.5425 12.4678H28.7622L32.2559 0.470703H38.1445L31.2671 19.1255L38.1445 38H32.2778L28.7183 25.937H28.3447L24.6313 38H18.9624L25.8179 19.1035ZM42.0996 0.470703H47.7905C48.5083 0.470703 49.292 0.507324 50.1416 0.580566C51.0059 0.63916 51.8628 0.792969 52.7124 1.04199C53.5767 1.27637 54.4043 1.64258 55.1953 2.14062C56.001 2.63867 56.7114 3.31982 57.3267 4.18408C57.9419 5.03369 58.4326 6.10303 58.7988 7.39209C59.1797 8.68115 59.3701 10.2485 59.3701 12.0942V13.4126C59.3701 15.4194 59.1943 17.1406 58.8428 18.5762C58.5059 19.9971 58.0518 21.1982 57.4805 22.1797C56.9092 23.1465 56.2427 23.9229 55.481 24.5088C54.7339 25.0947 53.9502 25.5415 53.1299 25.8491C52.3242 26.1421 51.5039 26.3398 50.6689 26.4424C49.8486 26.5303 49.0723 26.5742 48.3398 26.5742H47.7905V38H42.0996V0.470703ZM48.0762 22.3994C49.1016 22.3994 49.9658 22.2529 50.6689 21.96C51.3721 21.6523 51.9287 21.1836 52.3389 20.5537C52.7637 19.9092 53.064 19.0889 53.2397 18.0928C53.4302 17.082 53.5254 15.8735 53.5254 14.4673V11.0835C53.5254 9.97021 53.4448 9.01074 53.2837 8.20508C53.1226 7.38477 52.8296 6.71094 52.4048 6.18359C51.9946 5.65625 51.438 5.26807 50.7349 5.01904C50.0317 4.75537 49.1455 4.62354 48.0762 4.62354H47.7905V22.3994H48.0762ZM3.20801 37.4707H8.89893V70.5176H16.6553V75H3.20801V37.4707ZM28.5645 75.3296C27.9639 75.3296 27.312 75.2783 26.6089 75.1758C25.9058 75.0879 25.21 74.8901 24.5215 74.5825C23.833 74.2749 23.1665 73.8428 22.522 73.2861C21.8921 72.7148 21.3281 71.9678 20.8301 71.0449C20.3467 70.1221 19.9585 68.9868 19.6655 67.6392C19.3726 66.2769 19.2261 64.6582 19.2261 62.7832V49.4897C19.2261 47.6001 19.3726 45.9888 19.6655 44.6558C19.9731 43.3081 20.376 42.1802 20.874 41.272C21.3721 40.3491 21.936 39.6167 22.5659 39.0747C23.2104 38.5327 23.877 38.1226 24.5654 37.8442C25.2686 37.5513 25.9644 37.3608 26.6528 37.2729C27.3413 37.1851 27.9785 37.1411 28.5645 37.1411C29.1211 37.1411 29.7363 37.1851 30.4102 37.2729C31.0986 37.3462 31.7798 37.522 32.4536 37.8003C33.1421 38.064 33.8086 38.4668 34.4531 39.0088C35.0977 39.5361 35.6689 40.2612 36.167 41.1841C36.665 42.0923 37.0605 43.2275 37.3535 44.5898C37.6611 45.9375 37.8149 47.5708 37.8149 49.4897V62.7832C37.8149 64.6436 37.6611 66.2476 37.3535 67.5952C37.0459 68.9282 36.6431 70.0635 36.145 71.001C35.647 71.9238 35.0684 72.6709 34.4092 73.2422C33.7646 73.7988 33.0981 74.2383 32.4097 74.5605C31.7358 74.8682 31.062 75.0732 30.3882 75.1758C29.7144 75.2783 29.1064 75.3296 28.5645 75.3296ZM28.5645 71.0449C29.1211 71.0449 29.6045 70.9497 30.0146 70.7593C30.4395 70.5688 30.7837 70.2393 31.0474 69.7705C31.3257 69.3018 31.5308 68.6865 31.6626 67.9248C31.8091 67.1484 31.8823 66.1743 31.8823 65.0024V47.9297C31.8823 46.7285 31.8091 45.7251 31.6626 44.9194C31.5308 44.1138 31.3257 43.4692 31.0474 42.9858C30.7837 42.4878 30.4395 42.1362 30.0146 41.9312C29.6045 41.7261 29.1211 41.6235 28.5645 41.6235C27.9932 41.6235 27.4951 41.7261 27.0703 41.9312C26.6455 42.1362 26.2939 42.4878 26.0156 42.9858C25.7373 43.4692 25.5249 44.1138 25.3784 44.9194C25.2466 45.7251 25.1807 46.7285 25.1807 47.9297V65.0024C25.1807 66.1743 25.2466 67.1484 25.3784 67.9248C25.5249 68.6865 25.7373 69.3018 26.0156 69.7705C26.2939 70.2393 26.6455 70.5688 27.0703 70.7593C27.4951 70.9497 27.9932 71.0449 28.5645 71.0449ZM43.1982 37.4707H49.3726C50.0757 37.4707 50.8447 37.5 51.6797 37.5586C52.5293 37.6172 53.3716 37.7637 54.2065 37.998C55.0562 38.2178 55.8691 38.5547 56.6455 39.0088C57.4365 39.4629 58.1323 40.0854 58.7329 40.8765C59.3481 41.6675 59.8389 42.6636 60.2051 43.8647C60.5713 45.0513 60.7544 46.4941 60.7544 48.1934V49.1382C60.7544 51.9946 60.3442 54.3237 59.5239 56.1255C58.7036 57.9126 57.4951 59.2017 55.8984 59.9927L61.9189 75H55.8984L50.9106 60.9595H48.7793V75H43.1982V37.4707ZM49.6362 56.8506C50.6323 56.8506 51.4746 56.7407 52.1631 56.521C52.8516 56.3013 53.4082 55.9351 53.833 55.4224C54.2578 54.895 54.5654 54.2065 54.7559 53.3569C54.9463 52.4927 55.0415 51.4307 55.0415 50.1709V47.2046C55.0415 46.2378 54.9536 45.4028 54.7778 44.6997C54.6021 43.9966 54.3018 43.418 53.877 42.9639C53.4668 42.5098 52.9175 42.1729 52.229 41.9531C51.5405 41.7334 50.6763 41.6235 49.6362 41.6235H48.7793V56.8506H49.6362ZM66.2256 37.4707H80.1343V41.9531H71.9165V53.1812H78.2666V57.6636H71.9165V70.5176H80.354V75H66.2256V37.4707Z" fill="#ECECEC"/>
<path d="M0 79.5044H81.2549V81.7456H0V79.5044Z" fill="#ECECEC"/>
</svg>
