<svg width="73" height="253" viewBox="0 0 73 253" fill="none" xmlns="http://www.w3.org/2000/svg">
<path d="M0.500001 122.4C8.1 122 13.1 118.2 15.5 111C17.9 103.6 19.1 91.7 19.1 75.3C19.1 58.7 19.8 46.9 21.2 39.9C22.6 32.9 25.1 26.2 28.7 19.8C36.1 6.6 50.7 -2.86102e-06 72.5 -2.86102e-06V8.09998C62.1 8.09998 54.3 12.8 49.1 22.2C44.1 31.6 41.6 43.8 41.6 58.8C41.6 82.4 39.9 99.2 36.5 109.2C33.1 119.2 26.5 124.9 16.7 126.3C26.5 127.7 33.1 133.4 36.5 143.4C39.9 153.4 41.6 170.2 41.6 193.8C41.6 208.8 44.1 221 49.1 230.4C54.3 239.8 62.1 244.5 72.5 244.5V252.6C50.7 252.6 36.1 246 28.7 232.8C22.3 221.4 19.1 205.2 19.1 184.2C19.1 163.2 17.9 149.1 15.5 141.9C13.1 134.5 8.1 130.6 0.500001 130.2V122.4Z" fill="#4C9AA7" fill-opacity="0.15"/>
</svg>
