<svg width="187" height="142" viewBox="0 0 187 142" fill="none" xmlns="http://www.w3.org/2000/svg">
<path d="M1.05957 1.11133V0.111328H0.0595703V1.11133H1.05957ZM28.1616 1.11133H29.1616V0.111328H28.1616V1.11133ZM28.1616 9.57812V10.5781H29.1616V9.57812H28.1616ZM11.8091 9.57812V8.57812H10.8091V9.57812H11.8091ZM11.8091 30.7866H10.8091V31.7866H11.8091V30.7866ZM24.6338 30.7866H25.6338V29.7866H24.6338V30.7866ZM24.6338 39.2534V40.2534H25.6338V39.2534H24.6338ZM11.8091 39.2534V38.2534H10.8091V39.2534H11.8091ZM11.8091 72V73H12.8091V72H11.8091ZM1.05957 72H0.0595703V73H1.05957V72ZM1.05957 2.11133H28.1616V0.111328H1.05957V2.11133ZM27.1616 1.11133V9.57812H29.1616V1.11133H27.1616ZM28.1616 8.57812H11.8091V10.5781H28.1616V8.57812ZM10.8091 9.57812V30.7866H12.8091V9.57812H10.8091ZM11.8091 31.7866H24.6338V29.7866H11.8091V31.7866ZM23.6338 30.7866V39.2534H25.6338V30.7866H23.6338ZM24.6338 38.2534H11.8091V40.2534H24.6338V38.2534ZM10.8091 39.2534V72H12.8091V39.2534H10.8091ZM11.8091 71H1.05957V73H11.8091V71ZM2.05957 72V1.11133H0.0595703V72H2.05957ZM35.3418 1.11133V0.111328H34.3418V1.11133H35.3418ZM51.3623 1.27734L51.2923 2.27489L51.2935 2.27497L51.3623 1.27734ZM56.1353 2.10742L55.865 3.07021L55.8749 3.07299L55.8849 3.07557L56.1353 2.10742ZM60.7422 4.0166L60.2373 4.87982L60.2443 4.88385L60.7422 4.0166ZM64.6851 7.54443L63.8886 8.14918L63.8957 8.15837L64.6851 7.54443ZM67.4658 13.189L66.5093 13.4806L66.5103 13.4839L67.4658 13.189ZM66.1792 36.3481L67.088 36.7653L67.0893 36.7625L66.1792 36.3481ZM59.3311 43.6528L58.8871 42.7568L58.0587 43.1672L58.403 44.0252L59.3311 43.6528ZM70.7031 72V73H72.1818L71.6312 71.6277L70.7031 72ZM59.3311 72L58.3887 72.3347L58.6251 73H59.3311V72ZM49.9097 45.479L50.852 45.1443L50.6156 44.479H49.9097V45.479ZM45.8838 45.479V44.479H44.8838V45.479H45.8838ZM45.8838 72V73H46.8838V72H45.8838ZM35.3418 72H34.3418V73H35.3418V72ZM55.4297 35.02L56.1998 35.6581L56.2084 35.6473L55.4297 35.02ZM57.1729 31.1187L58.1486 31.3374L58.1494 31.3338L57.1729 31.1187ZM55.5127 11.4873L54.7706 12.1576L54.7765 12.1641L54.7824 12.1705L55.5127 11.4873ZM45.8838 8.95557V7.95557H44.8838V8.95557H45.8838ZM45.8838 37.7178H44.8838V38.7178H45.8838V37.7178ZM35.3418 2.11133H47.0044V0.111328H35.3418V2.11133ZM47.0044 2.11133C48.3053 2.11133 49.7342 2.16555 51.2923 2.27489L51.4323 0.279797C49.8361 0.167782 48.3598 0.111328 47.0044 0.111328V2.11133ZM51.2935 2.27497C52.8289 2.38086 54.3524 2.64563 55.865 3.07021L56.4055 1.14463C54.7638 0.683799 53.1053 0.395177 51.4311 0.279713L51.2935 2.27497ZM55.8849 3.07557C57.3982 3.46695 58.8484 4.06742 60.2373 4.87979L61.2471 3.15341C59.703 2.25028 58.0819 1.57797 56.3856 1.13927L55.8849 3.07557ZM60.2443 4.88385C61.6124 5.66923 62.8279 6.75207 63.8886 8.14914L65.4815 6.93972C64.2734 5.34852 62.8603 4.07947 61.2401 3.14935L60.2443 4.88385ZM63.8957 8.15837C64.9666 9.53523 65.8445 11.3 66.5093 13.4806L68.4224 12.8973C67.7037 10.5401 66.7277 8.54192 65.4744 6.93049L63.8957 8.15837ZM66.5103 13.4839C67.1639 15.6017 67.5034 18.2215 67.5034 21.3652H69.5034C69.5034 18.0897 69.1512 15.2587 68.4213 12.8941L66.5103 13.4839ZM67.5034 21.3652V23.1499H69.5034V21.3652H67.5034ZM67.5034 23.1499C67.5034 28.4609 66.7391 32.7049 65.2691 35.9338L67.0893 36.7625C68.7182 33.1847 69.5034 28.6299 69.5034 23.1499H67.5034ZM65.2704 35.931C63.8059 39.1214 61.6763 41.375 58.8871 42.7568L59.775 44.5489C63.0177 42.9424 65.4535 40.3262 67.088 36.7653L65.2704 35.931ZM58.403 44.0252L69.775 72.3723L71.6312 71.6277L60.2592 43.2805L58.403 44.0252ZM70.7031 71H59.3311V73H70.7031V71ZM60.2734 71.6653L50.852 45.1443L48.9674 45.8138L58.3887 72.3347L60.2734 71.6653ZM49.9097 44.479H45.8838V46.479H49.9097V44.479ZM44.8838 45.479V72H46.8838V45.479H44.8838ZM45.8838 71H35.3418V73H45.8838V71ZM36.3418 72V1.11133H34.3418V72H36.3418ZM47.5024 38.7178C49.4511 38.7178 51.1514 38.5036 52.5794 38.0479L51.9714 36.1426C50.7985 36.5169 49.3168 36.7178 47.5024 36.7178V38.7178ZM52.5794 38.0479C54.0459 37.5799 55.2648 36.7863 56.1997 35.658L54.6597 34.382C53.9897 35.1906 53.1058 35.7805 51.9714 36.1426L52.5794 38.0479ZM56.2084 35.6473C57.1304 34.5029 57.7647 33.0504 58.1486 31.3374L56.1971 30.8999C55.8616 32.3966 55.3338 33.545 54.6509 34.3927L56.2084 35.6473ZM58.1494 31.3338C58.5297 29.6079 58.7124 27.5248 58.7124 25.1006H56.7124C56.7124 27.4355 56.5354 29.3644 56.1963 30.9035L58.1494 31.3338ZM58.7124 25.1006V19.4976H56.7124V25.1006H58.7124ZM58.7124 19.4976C58.7124 17.615 58.5417 15.9523 58.1845 14.5236L56.2442 15.0086C56.5511 16.2361 56.7124 17.7278 56.7124 19.4976H58.7124ZM58.1845 14.5236C57.8181 13.0581 57.1794 11.8052 56.243 10.8041L54.7824 12.1705C55.4508 12.8849 55.9465 13.8179 56.2442 15.0086L58.1845 14.5236ZM56.2548 10.817C55.3417 9.80608 54.1421 9.08446 52.7039 8.62547L52.0959 10.5308C53.2586 10.9019 54.1342 11.453 54.7706 12.1576L56.2548 10.817ZM52.7039 8.62547C51.2724 8.16859 49.5289 7.95557 47.5024 7.95557V9.95557C49.405 9.95557 50.9265 10.1576 52.0959 10.5308L52.7039 8.62547ZM47.5024 7.95557H45.8838V9.95557H47.5024V7.95557ZM44.8838 8.95557V37.7178H46.8838V8.95557H44.8838ZM45.8838 38.7178H47.5024V36.7178H45.8838V38.7178ZM78.8379 1.11133V0.111328H77.8379V1.11133H78.8379ZM105.11 1.11133H106.11V0.111328H105.11V1.11133ZM105.11 9.57812V10.5781H106.11V9.57812H105.11ZM89.5874 9.57812V8.57812H88.5874V9.57812H89.5874ZM89.5874 30.7866H88.5874V31.7866H89.5874V30.7866ZM101.582 30.7866H102.582V29.7866H101.582V30.7866ZM101.582 39.2534V40.2534H102.582V39.2534H101.582ZM89.5874 39.2534V38.2534H88.5874V39.2534H89.5874ZM89.5874 63.5332H88.5874V64.5332H89.5874V63.5332ZM105.525 63.5332H106.525V62.5332H105.525V63.5332ZM105.525 72V73H106.525V72H105.525ZM78.8379 72H77.8379V73H78.8379V72ZM78.8379 2.11133H105.11V0.111328H78.8379V2.11133ZM104.11 1.11133V9.57812H106.11V1.11133H104.11ZM105.11 8.57812H89.5874V10.5781H105.11V8.57812ZM88.5874 9.57812V30.7866H90.5874V9.57812H88.5874ZM89.5874 31.7866H101.582V29.7866H89.5874V31.7866ZM100.582 30.7866V39.2534H102.582V30.7866H100.582ZM101.582 38.2534H89.5874V40.2534H101.582V38.2534ZM88.5874 39.2534V63.5332H90.5874V39.2534H88.5874ZM89.5874 64.5332H105.525V62.5332H89.5874V64.5332ZM104.525 63.5332V72H106.525V63.5332H104.525ZM105.525 71H78.8379V73H105.525V71ZM79.8379 72V1.11133H77.8379V72H79.8379ZM113.286 1.11133V0.111328H112.286V1.11133H113.286ZM139.558 1.11133H140.558V0.111328H139.558V1.11133ZM139.558 9.57812V10.5781H140.558V9.57812H139.558ZM124.036 9.57812V8.57812H123.036V9.57812H124.036ZM124.036 30.7866H123.036V31.7866H124.036V30.7866ZM136.03 30.7866H137.03V29.7866H136.03V30.7866ZM136.03 39.2534V40.2534H137.03V39.2534H136.03ZM124.036 39.2534V38.2534H123.036V39.2534H124.036ZM124.036 63.5332H123.036V64.5332H124.036V63.5332ZM139.973 63.5332H140.973V62.5332H139.973V63.5332ZM139.973 72V73H140.973V72H139.973ZM113.286 72H112.286V73H113.286V72ZM113.286 2.11133H139.558V0.111328H113.286V2.11133ZM138.558 1.11133V9.57812H140.558V1.11133H138.558ZM139.558 8.57812H124.036V10.5781H139.558V8.57812ZM123.036 9.57812V30.7866H125.036V9.57812H123.036ZM124.036 31.7866H136.03V29.7866H124.036V31.7866ZM135.03 30.7866V39.2534H137.03V30.7866H135.03ZM136.03 38.2534H124.036V40.2534H136.03V38.2534ZM123.036 39.2534V63.5332H125.036V39.2534H123.036ZM124.036 64.5332H139.973V62.5332H124.036V64.5332ZM138.973 63.5332V72H140.973V63.5332H138.973ZM139.973 71H113.286V73H139.973V71ZM114.286 72V1.11133H112.286V72H114.286ZM1.05957 69.1113V68.1113H0.0595703V69.1113H1.05957ZM11.8091 69.1113H12.8091V68.1113H11.8091V69.1113ZM11.8091 131.533H10.8091V132.533H11.8091V131.533ZM26.46 131.533H27.46V130.533H26.46V131.533ZM26.46 140V141H27.46V140H26.46ZM1.05957 140H0.0595703V141H1.05957V140ZM1.05957 70.1113H11.8091V68.1113H1.05957V70.1113ZM10.8091 69.1113V131.533H12.8091V69.1113H10.8091ZM11.8091 132.533H26.46V130.533H11.8091V132.533ZM25.46 131.533V140H27.46V131.533H25.46ZM26.46 139H1.05957V141H26.46V139ZM2.05957 140V69.1113H0.0595703V140H2.05957ZM41.0693 69.1113V68.1113H40.2369L40.0859 68.93L41.0693 69.1113ZM53.4375 69.1113L54.4208 68.9294L54.2695 68.1113H53.4375V69.1113ZM66.5527 140V141H67.7547L67.536 139.818L66.5527 140ZM55.6787 140L54.6903 140.152L54.8206 141H55.6787V140ZM53.728 127.3L54.7164 127.148L54.5862 126.3H53.728V127.3ZM40.7788 127.3V126.3H39.9151L39.7894 127.154L40.7788 127.3ZM38.9111 140V141H39.7748L39.9005 140.145L38.9111 140ZM27.9956 140L27.0122 139.819L26.7943 141H27.9956V140ZM52.4829 119.207V120.207H53.6338L53.4731 119.067L52.4829 119.207ZM47.5024 83.8867L48.4926 83.7471L48.3713 82.8867H47.5024V83.8867ZM47.0459 83.8867V82.8867H46.178L46.0559 83.7459L47.0459 83.8867ZM42.0239 119.207L41.0339 119.066L40.8717 120.207H42.0239V119.207ZM41.0693 70.1113H53.4375V68.1113H41.0693V70.1113ZM52.4542 69.2933L65.5694 140.182L67.536 139.818L54.4208 68.9294L52.4542 69.2933ZM66.5527 139H55.6787V141H66.5527V139ZM56.6671 139.848L54.7164 127.148L52.7396 127.452L54.6903 140.152L56.6671 139.848ZM53.728 126.3H40.7788V128.3H53.728V126.3ZM39.7894 127.154L37.9218 139.855L39.9005 140.145L41.7682 127.445L39.7894 127.154ZM38.9111 139H27.9956V141H38.9111V139ZM28.979 140.181L42.0528 69.2927L40.0859 68.93L27.0122 139.819L28.979 140.181ZM53.4731 119.067L48.4926 83.7471L46.5122 84.0263L51.4927 119.346L53.4731 119.067ZM47.5024 82.8867H47.0459V84.8867H47.5024V82.8867ZM46.0559 83.7459L41.0339 119.066L43.014 119.347L48.0359 84.0275L46.0559 83.7459ZM42.0239 120.207H52.4829V118.207H42.0239V120.207ZM73.4424 69.1113V68.1113H72.4424V69.1113H73.4424ZM82.1582 69.1113L83.0984 68.7708L82.8596 68.1113H82.1582V69.1113ZM99.3408 116.55L98.4006 116.891L98.6394 117.55H99.3408V116.55ZM99.5898 116.55V117.55H100.668L100.587 116.476L99.5898 116.55ZM99.2578 112.856L98.263 112.958L99.2578 112.856ZM98.8843 108.25L97.8863 108.313L97.8864 108.314L98.8843 108.25ZM98.4692 69.1113V68.1113H97.4692V69.1113H98.4692ZM108.098 69.1113H109.098V68.1113H108.098V69.1113ZM108.098 140V141H109.098V140H108.098ZM99.2993 140L98.3615 140.347L98.6032 141H99.2993V140ZM82.1997 93.8062L83.1375 93.459L82.8959 92.8062H82.1997V93.8062ZM81.8677 93.8062V92.8062H80.7988L80.8699 93.8727L81.8677 93.8062ZM82.1997 97.8735L81.2041 97.9675L81.2043 97.9692L82.1997 97.8735ZM82.8638 109.868L81.8643 109.9L81.8643 109.9L82.8638 109.868ZM82.9883 140V141H83.9883V140H82.9883ZM73.4424 140H72.4424V141H73.4424V140ZM73.4424 70.1113H82.1582V68.1113H73.4424V70.1113ZM81.218 69.4519L98.4006 116.891L100.281 116.21L83.0984 68.7708L81.218 69.4519ZM99.3408 117.55H99.5898V115.55H99.3408V117.55ZM100.587 116.476C100.503 115.358 100.392 114.118 100.253 112.755L98.263 112.958C98.4006 114.307 98.5104 115.529 98.5926 116.625L100.587 116.476ZM100.253 112.755C100.116 111.414 99.9923 109.891 99.8822 108.185L97.8864 108.314C97.9976 110.039 98.1231 111.587 98.263 112.958L100.253 112.755ZM99.8823 108.186C99.7722 106.453 99.6758 104.497 99.593 102.318L97.5945 102.394C97.6777 104.586 97.775 106.559 97.8863 108.313L99.8823 108.186ZM99.593 102.318C99.5106 100.147 99.4692 97.6979 99.4692 94.9683H97.4692C97.4692 97.7172 97.5109 100.193 97.5945 102.394L99.593 102.318ZM99.4692 94.9683V69.1113H97.4692V94.9683H99.4692ZM98.4692 70.1113H108.098V68.1113H98.4692V70.1113ZM107.098 69.1113V140H109.098V69.1113H107.098ZM108.098 139H99.2993V141H108.098V139ZM100.237 139.653L83.1375 93.459L81.2619 94.1533L98.3615 140.347L100.237 139.653ZM82.1997 92.8062H81.8677V94.8062H82.1997V92.8062ZM80.8699 93.8727C80.9536 95.1284 81.0651 96.4934 81.2041 97.9675L83.1953 97.7796C83.0577 96.3207 82.9478 94.9742 82.8655 93.7396L80.8699 93.8727ZM81.2043 97.9692C81.341 99.3912 81.4646 101.079 81.5748 103.035L83.5717 102.922C83.4605 100.949 83.3351 99.2335 83.1951 97.7778L81.2043 97.9692ZM81.5748 103.035C81.6849 104.989 81.7814 107.277 81.8643 109.9L83.8633 109.837C83.7801 107.202 83.6829 104.897 83.5717 102.922L81.5748 103.035ZM81.8643 109.9C81.9468 112.487 81.9883 115.575 81.9883 119.165H83.9883C83.9883 115.561 83.9467 112.451 83.8633 109.836L81.8643 109.9ZM81.9883 119.165V140H83.9883V119.165H81.9883ZM82.9883 139H73.4424V141H82.9883V139ZM74.4424 140V69.1113H72.4424V140H74.4424ZM135.532 140.623V141.623L135.538 141.623L135.532 140.623ZM131.921 140.332L132.069 139.343L132.06 139.342L132.051 139.34L131.921 140.332ZM128.062 139.211L127.646 140.121L127.654 140.124L128.062 139.211ZM124.368 136.763L123.687 137.495L123.696 137.504L123.705 137.512L124.368 136.763ZM121.255 132.529L120.363 132.982L120.369 132.993L121.255 132.529ZM119.097 126.096L118.117 126.296L118.12 126.309L119.097 126.096ZM119.138 82.6831L120.115 82.8978L120.115 82.8955L119.138 82.6831ZM121.338 76.2915L122.221 76.7614L122.224 76.7555L121.338 76.2915ZM124.492 72.1411L123.84 71.3831L124.492 72.1411ZM128.186 69.8169L128.568 70.7412L128.576 70.7376L128.585 70.734L128.186 69.8169ZM131.963 68.7378L131.834 67.7462L131.831 67.7466L131.963 68.7378ZM142.546 69.6924L142.154 70.6122L142.162 70.6157L142.17 70.619L142.546 69.6924ZM147.112 72.9297L146.339 73.5638L146.345 73.5722L146.353 73.5805L147.112 72.9297ZM149.561 77.7026L148.592 77.9521L148.594 77.9589L148.596 77.9658L149.561 77.7026ZM150.059 87.7466L149.067 87.62L149.065 87.6292L149.064 87.6385L150.059 87.7466ZM149.395 91.98V92.98H150.217L150.376 92.1727L149.395 91.98ZM140.679 91.98H139.679V92.98H140.679V91.98ZM131.133 79.2798L132.011 79.7587L132.017 79.7477L131.133 79.2798ZM129.971 82.9321L128.987 82.7532L128.985 82.7619L128.984 82.7706L129.971 82.9321ZM129.888 126.511L128.896 126.642L128.898 126.651L128.899 126.66L129.888 126.511ZM132.751 131.948L132.291 132.836L132.311 132.846L132.33 132.855L132.751 131.948ZM137.524 132.031L137.956 132.933L137.972 132.926L137.987 132.918L137.524 132.031ZM139.185 130.537L138.373 129.953L138.369 129.959L139.185 130.537ZM140.347 127.964L139.386 127.686L139.384 127.694L139.381 127.703L140.347 127.964ZM140.803 117.339V116.339H139.803V117.339H140.803ZM150.64 117.339H151.64V116.339H150.64V117.339ZM146.738 136.514L147.46 137.206L146.738 136.514ZM135.532 139.623C134.483 139.623 133.329 139.531 132.069 139.343L131.774 141.321C133.115 141.521 134.368 141.623 135.532 141.623V139.623ZM132.051 139.34C130.884 139.188 129.691 138.844 128.469 138.298L127.654 140.124C129.033 140.741 130.413 141.144 131.792 141.324L132.051 139.34ZM128.477 138.302C127.305 137.767 126.156 137.008 125.03 136.013L123.705 137.512C124.959 138.62 126.273 139.494 127.646 140.121L128.477 138.302ZM125.048 136.03C123.987 135.044 123.013 133.731 122.141 132.065L120.369 132.993C121.323 134.814 122.425 136.323 123.687 137.495L125.048 136.03ZM122.146 132.076C121.31 130.43 120.615 128.372 120.074 125.884L118.12 126.309C118.685 128.912 119.429 131.142 120.363 132.982L122.146 132.076ZM120.076 125.896C119.568 123.407 119.308 120.42 119.308 116.924H117.308C117.308 120.511 117.574 123.639 118.117 126.296L120.076 125.896ZM119.308 116.924V91.814H117.308V116.924H119.308ZM119.308 91.814C119.308 88.2914 119.582 85.3241 120.115 82.8978L118.161 82.4684C117.588 85.0779 117.308 88.1978 117.308 91.814H119.308ZM120.115 82.8955C120.655 80.4113 121.363 78.3736 122.221 76.7614L120.455 75.8217C119.487 77.6404 118.728 79.8638 118.161 82.4707L120.115 82.8955ZM122.224 76.7555C123.093 75.0969 124.071 73.8225 125.144 72.8991L123.84 71.3831C122.534 72.5072 121.409 73.9998 120.452 75.8275L122.224 76.7555ZM125.144 72.8991C126.265 71.9353 127.406 71.221 128.568 70.7412L127.804 68.8926C126.42 69.4642 125.099 70.2994 123.84 71.3831L125.144 72.8991ZM128.585 70.734C129.781 70.2137 130.951 69.8816 132.095 69.729L131.831 67.7466C130.485 67.926 129.136 68.3133 127.787 68.8998L128.585 70.734ZM132.092 69.7294C133.33 69.568 134.462 69.4888 135.491 69.4888V67.4888C134.361 67.4888 133.141 67.5756 131.834 67.7462L132.092 69.7294ZM135.491 69.4888C138.226 69.4888 140.434 69.8787 142.154 70.6122L142.939 68.7725C140.896 67.9012 138.4 67.4888 135.491 67.4888V69.4888ZM142.17 70.619C143.948 71.3405 145.325 72.3279 146.339 73.5638L147.885 72.2956C146.63 70.7646 144.963 69.5937 142.922 68.7658L142.17 70.619ZM146.353 73.5805C147.41 74.8137 148.158 76.2654 148.592 77.9521L150.529 77.4532C150.023 75.4875 149.138 73.7572 147.871 72.2789L146.353 73.5805ZM148.596 77.9658C149.069 79.6995 149.308 81.5473 149.308 83.5132H151.308C151.308 81.384 151.049 79.3581 150.525 77.4395L148.596 77.9658ZM149.308 83.5132C149.308 84.9992 149.227 86.3675 149.067 87.62L151.051 87.8732C151.223 86.5247 151.308 85.0708 151.308 83.5132H149.308ZM149.064 87.6385C148.93 88.8773 148.713 90.2596 148.413 91.7872L150.376 92.1727C150.684 90.6014 150.911 89.1615 151.053 87.8546L149.064 87.6385ZM149.395 90.98H140.679V92.98H149.395V90.98ZM141.679 91.98V88.3691H139.679V91.98H141.679ZM141.679 88.3691C141.679 84.4261 141.25 81.3377 140.306 79.2069L138.478 80.0167C139.25 81.7597 139.679 84.5094 139.679 88.3691H141.679ZM140.306 79.2069C139.832 78.1348 139.213 77.2545 138.414 76.6402C137.602 76.0152 136.655 75.7065 135.615 75.7065V77.7065C136.235 77.7065 136.748 77.8821 137.195 78.2255C137.655 78.5796 138.095 79.152 138.478 80.0167L140.306 79.2069ZM135.615 75.7065C134.488 75.7065 133.453 75.9263 132.54 76.3998L133.461 78.1754C134.042 77.8741 134.75 77.7065 135.615 77.7065V75.7065ZM132.54 76.3998C131.57 76.9029 130.817 77.7391 130.249 78.8119L132.017 79.7477C132.445 78.939 132.937 78.447 133.461 78.1754L132.54 76.3998ZM130.255 78.8009C129.687 79.8414 129.274 81.1724 128.987 82.7532L130.955 83.111C131.221 81.6482 131.582 80.5443 132.011 79.7586L130.255 78.8009ZM128.984 82.7706C128.723 84.3643 128.597 86.3179 128.597 88.6182H130.597C130.597 86.3807 130.72 84.5435 130.958 83.0936L128.984 82.7706ZM128.597 88.6182V120.991H130.597V88.6182H128.597ZM128.597 120.991C128.597 123.229 128.695 125.117 128.896 126.642L130.879 126.38C130.693 124.973 130.597 123.18 130.597 120.991H128.597ZM128.899 126.66C129.13 128.19 129.5 129.487 130.042 130.508L131.808 129.57C131.41 128.82 131.088 127.765 130.876 126.362L128.899 126.66ZM130.042 130.508C130.589 131.538 131.332 132.338 132.291 132.836L133.212 131.06C132.677 130.783 132.202 130.311 131.808 129.57L130.042 130.508ZM132.33 132.855C133.267 133.29 134.345 133.488 135.532 133.488V131.488C134.561 131.488 133.785 131.326 133.173 131.041L132.33 132.855ZM135.532 133.488C136.376 133.488 137.188 133.301 137.956 132.933L137.093 131.129C136.589 131.37 136.072 131.488 135.532 131.488V133.488ZM137.987 132.918C138.782 132.503 139.451 131.891 140.001 131.115L138.369 129.959C137.977 130.511 137.54 130.895 137.062 131.145L137.987 132.918ZM139.996 131.121C140.579 130.311 141.011 129.337 141.312 128.225L139.381 127.703C139.129 128.638 138.786 129.379 138.373 129.953L139.996 131.121ZM141.307 128.242C141.644 127.078 141.803 125.75 141.803 124.27H139.803C139.803 125.613 139.658 126.746 139.386 127.686L141.307 128.242ZM141.803 124.27V117.339H139.803V124.27H141.803ZM140.803 118.339H150.64V116.339H140.803V118.339ZM149.64 117.339V123.896H151.64V117.339H149.64ZM149.64 123.896C149.64 129.469 148.365 133.373 146.017 135.821L147.46 137.206C150.313 134.232 151.64 129.724 151.64 123.896H149.64ZM146.017 135.821C143.654 138.285 140.21 139.596 135.527 139.623L135.538 141.623C140.594 141.594 144.621 140.166 147.46 137.206L146.017 135.821ZM159.106 69.1113V68.1113H158.106V69.1113H159.106ZM185.378 69.1113H186.378V68.1113H185.378V69.1113ZM185.378 77.5781V78.5781H186.378V77.5781H185.378ZM169.856 77.5781V76.5781H168.856V77.5781H169.856ZM169.856 98.7866H168.856V99.7866H169.856V98.7866ZM181.851 98.7866H182.851V97.7866H181.851V98.7866ZM181.851 107.253V108.253H182.851V107.253H181.851ZM169.856 107.253V106.253H168.856V107.253H169.856ZM169.856 131.533H168.856V132.533H169.856V131.533ZM185.793 131.533H186.793V130.533H185.793V131.533ZM185.793 140V141H186.793V140H185.793ZM159.106 140H158.106V141H159.106V140ZM159.106 70.1113H185.378V68.1113H159.106V70.1113ZM184.378 69.1113V77.5781H186.378V69.1113H184.378ZM185.378 76.5781H169.856V78.5781H185.378V76.5781ZM168.856 77.5781V98.7866H170.856V77.5781H168.856ZM169.856 99.7866H181.851V97.7866H169.856V99.7866ZM180.851 98.7866V107.253H182.851V98.7866H180.851ZM181.851 106.253H169.856V108.253H181.851V106.253ZM168.856 107.253V131.533H170.856V107.253H168.856ZM169.856 132.533H185.793V130.533H169.856V132.533ZM184.793 131.533V140H186.793V131.533H184.793ZM185.793 139H159.106V141H185.793V139ZM160.106 140V69.1113H158.106V140H160.106Z" fill="#EFEFEF" fill-opacity="0.55"/>
</svg>
