<svg width="59" height="142" viewBox="0 0 59 142" fill="none" xmlns="http://www.w3.org/2000/svg">
<path d="M1.47168 2.11133V1.11133H0.47168V2.11133H1.47168ZM12.2212 2.11133H13.2212V1.11133H12.2212V2.11133ZM12.2212 73V74H13.2212V73H12.2212ZM1.47168 73H0.47168V74H1.47168V73ZM1.47168 3.11133H12.2212V1.11133H1.47168V3.11133ZM11.2212 2.11133V73H13.2212V2.11133H11.2212ZM12.2212 72H1.47168V74H12.2212V72ZM2.47168 73V2.11133H0.47168V73H2.47168ZM21.8916 54.4478L20.9025 54.3004L20.9012 54.3094L20.9 54.3184L21.8916 54.4478ZM22.7217 50.2559V49.2559H21.9339L21.7495 50.0218L22.7217 50.2559ZM31.064 50.2559H32.064V49.2559H31.064V50.2559ZM31.396 58.7642L30.4072 58.9134L30.4086 58.9225L30.4101 58.9316L31.396 58.7642ZM32.5581 62.4995L31.6685 62.9563L31.676 62.9709L31.6839 62.9852L32.5581 62.4995ZM34.7163 64.7822L34.2058 65.6421L34.2214 65.6514L34.2375 65.6601L34.7163 64.7822ZM42.7266 63.8691L43.4426 64.5673L43.4511 64.5584L42.7266 63.8691ZM44.0962 55.9004L43.1068 56.0459L43.1093 56.0626L43.1123 56.0793L44.0962 55.9004ZM43.3076 53.1196L42.3772 53.4862L42.382 53.4982L42.387 53.5102L43.3076 53.1196ZM41.8135 50.2559L40.9641 50.7838L40.9708 50.7942L41.8135 50.2559ZM39.3647 46.8525L40.1456 46.2278L40.1379 46.2182L40.13 46.2088L39.3647 46.8525ZM28.1587 33.5298L27.3712 34.1461L27.3821 34.16L27.3934 34.1735L28.1587 33.5298ZM23.5518 25.8516L22.6281 26.2348L22.6296 26.2383L23.5518 25.8516ZM23.0122 11.0762L22.0774 10.7207L22.0732 10.7323L23.0122 11.0762ZM26.208 6.0127L26.9221 6.7128L26.9288 6.7058L26.208 6.0127ZM31.313 2.69238L31.6711 3.62608L31.6779 3.62344L31.313 2.69238ZM46.0469 2.81689L45.6544 3.73668L45.6588 3.73853L46.0469 2.81689ZM53.6836 11.1592L52.7199 11.4261L52.7223 11.4349L52.7249 11.4438L53.6836 11.1592ZM54.0986 20.7466L53.1165 20.5585L53.1149 20.5669L53.1134 20.5752L54.0986 20.7466ZM53.3101 24.98V25.98H54.1327L54.2913 25.1727L53.3101 24.98ZM45.0093 24.98H44.0093V25.98H45.0093V24.98ZM43.3906 12.9854L42.5086 13.4566L42.5113 13.4616L43.3906 12.9854ZM33.5957 11.6572L34.3391 12.3262L34.3471 12.317L33.5957 11.6572ZM32.3091 18.8374L31.3236 19.0073L31.3264 19.0237L31.3298 19.04L32.3091 18.8374ZM32.9731 21.0786L32.0447 21.45L32.0538 21.4729L32.0641 21.4953L32.9731 21.0786ZM35.4634 25.0215L34.6672 25.6266L34.6796 25.6429L34.6927 25.6587L35.4634 25.0215ZM47.9561 40.1289L48.7498 39.5206L48.7385 39.5059L48.7267 39.4916L47.9561 40.1289ZM53.1855 48.6787L52.2717 49.0849L52.2733 49.0883L53.1855 48.6787ZM53.8081 64.1182L52.8787 63.7489L52.8744 63.76L53.8081 64.1182ZM50.4463 69.2646L49.7529 68.5441L50.4463 69.2646ZM45.1338 72.5435L45.4725 73.4844L45.4835 73.4803L45.1338 72.5435ZM30.1094 72.3774L29.7317 73.3034L29.7359 73.3051L30.1094 72.3774ZM25.0459 68.9741L24.296 69.6358L24.3033 69.6439L25.0459 68.9741ZM22.3896 64.1597L21.4259 64.4265L21.4278 64.4334L21.4298 64.4402L22.3896 64.1597ZM22.6426 58.6396C22.6426 57.1534 22.7237 55.8 22.8832 54.5771L20.9 54.3184C20.7275 55.6411 20.6426 57.0823 20.6426 58.6396H22.6426ZM22.8807 54.5951C23.0694 53.3281 23.34 51.96 23.6939 50.4899L21.7495 50.0218C21.384 51.54 21.1012 52.9665 20.9025 54.3004L22.8807 54.5951ZM22.7217 51.2559H31.064V49.2559H22.7217V51.2559ZM30.064 50.2559V53.7007H32.064V50.2559H30.064ZM30.064 53.7007C30.064 55.6464 30.1766 57.3859 30.4072 58.9134L32.3848 58.6149C32.1727 57.2095 32.064 55.5733 32.064 53.7007H30.064ZM30.4101 58.9316C30.6715 60.471 31.0848 61.8195 31.6685 62.9563L33.4477 62.0427C32.98 61.132 32.6185 59.9902 32.3819 58.5967L30.4101 58.9316ZM31.6839 62.9852C32.3139 64.119 33.1523 65.0166 34.2058 65.6421L35.2268 63.9224C34.5094 63.4964 33.9091 62.8722 33.4323 62.0139L31.6839 62.9852ZM34.2375 65.6601C35.3298 66.2559 36.61 66.5293 38.0366 66.5293V64.5293C36.8623 64.5293 35.929 64.3046 35.1952 63.9043L34.2375 65.6601ZM38.0366 66.5293C40.2628 66.5293 42.12 65.9237 43.4426 64.5672L42.0106 63.171C41.1749 64.0281 39.9055 64.5293 38.0366 64.5293V66.5293ZM43.4511 64.5584C44.7649 63.1772 45.3452 61.2466 45.3452 58.9302H43.3452C43.3452 60.9302 42.8465 62.2922 42.002 63.1799L43.4511 64.5584ZM45.3452 58.9302C45.3452 57.7745 45.2586 56.7036 45.0801 55.7215L43.1123 56.0793C43.2658 56.9234 43.3452 57.8723 43.3452 58.9302H45.3452ZM45.0856 55.7549C44.9343 54.7263 44.6474 53.7172 44.2282 52.7291L42.387 53.5102C42.7426 54.3482 42.9814 55.193 43.1068 56.0459L45.0856 55.7549ZM44.238 52.7531C43.8505 51.7694 43.3205 50.7573 42.6562 49.7175L40.9708 50.7942C41.5792 51.7466 42.0453 52.6437 42.3772 53.4862L44.238 52.7531ZM42.6628 49.7279C42.0001 48.6619 41.159 47.4946 40.1456 46.2278L38.5839 47.4772C39.5626 48.7007 40.3541 49.8023 40.9642 50.7838L42.6628 49.7279ZM40.13 46.2088L28.924 32.8861L27.3934 34.1735L38.5995 47.4962L40.13 46.2088ZM28.9462 32.9135C27.0005 30.4273 25.5136 27.9441 24.474 25.4648L22.6296 26.2383C23.7481 28.9055 25.3325 31.5412 27.3712 34.1461L28.9462 32.9135ZM24.4754 25.4683C23.4488 22.994 22.9331 20.3578 22.9331 17.5508H20.9331C20.9331 20.6097 21.4965 23.5074 22.6281 26.2348L24.4754 25.4683ZM22.9331 17.5508C22.9331 15.3018 23.2769 13.2616 23.9512 11.42L22.0732 10.7323C21.3088 12.8198 20.9331 15.096 20.9331 17.5508H22.9331ZM23.9469 11.4316C24.6481 9.58763 25.6412 8.0193 26.9221 6.71277L25.4939 5.31262C24.0079 6.82836 22.8704 8.63567 22.0775 10.7207L23.9469 11.4316ZM26.9288 6.7058C28.2022 5.3815 29.7767 4.35269 31.6711 3.62606L30.9549 1.75871C28.8096 2.58156 26.9807 3.76628 25.4872 5.31959L26.9288 6.7058ZM31.6779 3.62344C33.5912 2.87364 35.7749 2.48877 38.2441 2.48877V0.48877C35.5669 0.48877 33.1299 0.906313 30.9481 1.76133L31.6779 3.62344ZM38.2441 2.48877C41.2845 2.48877 43.7413 2.92041 45.6544 3.73667L46.4393 1.89712C44.202 0.942547 41.4571 0.48877 38.2441 0.48877V2.48877ZM45.6588 3.73853C47.648 4.57607 49.1862 5.65588 50.3127 6.9576L51.825 5.64885C50.4613 4.07296 48.6515 2.82856 46.4349 1.89526L45.6588 3.73853ZM50.3127 6.9576C51.4627 8.2865 52.2622 9.77338 52.7199 11.4261L54.6473 10.8923C54.1089 8.94797 53.1652 7.19755 51.825 5.64885L50.3127 6.9576ZM52.7249 11.4438C53.224 13.1248 53.4722 14.8136 53.4722 16.5132H55.4722C55.4722 14.6157 55.1946 12.7353 54.6422 10.8746L52.7249 11.4438ZM53.4722 16.5132C53.4722 17.981 53.352 19.3284 53.1165 20.5585L55.0808 20.9347C55.3433 19.5638 55.4722 18.089 55.4722 16.5132H53.4722ZM53.1134 20.5752C52.8935 21.8395 52.6321 23.2434 52.3288 24.7872L54.2913 25.1727C54.5968 23.6176 54.861 22.1992 55.0838 20.9179L53.1134 20.5752ZM53.3101 23.98H45.0093V25.98H53.3101V23.98ZM46.0093 24.98V21.6182H44.0093V24.98H46.0093ZM46.0093 21.6182C46.0093 17.7859 45.4643 14.7141 44.2699 12.5091L42.5113 13.4616C43.4752 15.241 44.0093 17.9243 44.0093 21.6182H46.0093ZM44.2726 12.5141C43.6566 11.361 42.8232 10.4561 41.7619 9.84603C40.7039 9.23789 39.4767 8.95557 38.1196 8.95557V10.9556C39.1974 10.9556 40.0662 11.1782 40.7652 11.58C41.4609 11.9799 42.0456 12.5898 42.5086 13.4566L44.2726 12.5141ZM38.1196 8.95557C35.9145 8.95557 34.0887 9.58012 32.8443 10.9974L34.3471 12.317C35.0949 11.4655 36.2851 10.9556 38.1196 10.9556V8.95557ZM32.8524 10.9883C31.6509 12.3233 31.1016 14.0786 31.1016 16.1396H33.1016C33.1016 14.4377 33.5483 13.2047 34.339 12.3262L32.8524 10.9883ZM31.1016 16.1396C31.1016 17.1806 31.1737 18.138 31.3236 19.0073L33.2945 18.6675C33.1677 17.932 33.1016 17.0909 33.1016 16.1396H31.1016ZM31.3298 19.04C31.5066 19.8944 31.7441 20.6985 32.0447 21.45L33.9016 20.7072C33.6488 20.0753 33.4436 19.3852 33.2883 18.6348L31.3298 19.04ZM32.0641 21.4953C32.3898 22.206 32.7737 22.8994 33.2146 23.5756L34.8899 22.483C34.5007 21.8864 34.1652 21.2794 33.8822 20.662L32.0641 21.4953ZM33.2146 23.5756C33.6445 24.2347 34.129 24.9184 34.6672 25.6266L36.2595 24.4164C35.7463 23.7411 35.2901 23.0967 34.8899 22.483L33.2146 23.5756ZM34.6927 25.6587L47.1854 40.7662L48.7267 39.4916L36.234 24.3842L34.6927 25.6587ZM47.1623 40.7372C49.3945 43.6499 51.0929 46.4324 52.2717 49.0848L54.0994 48.2726C52.8433 45.4465 51.0554 42.5292 48.7498 39.5206L47.1623 40.7372ZM52.2733 49.0883C53.4315 51.6679 54.0117 54.4056 54.0117 57.3115H56.0117C56.0117 54.1302 55.3745 51.1127 54.0978 48.2691L52.2733 49.0883ZM54.0117 57.3115C54.0117 59.7228 53.6277 61.8637 52.8788 63.749L54.7375 64.4874C55.5933 62.3329 56.0117 59.9361 56.0117 57.3115H54.0117ZM52.8744 63.76C52.1489 65.6517 51.1071 67.241 49.7529 68.5441L51.1397 69.9852C52.7184 68.466 53.9179 66.6243 54.7418 64.4763L52.8744 63.76ZM49.7529 68.5441C48.3934 69.8523 46.7425 70.8754 44.784 71.6066L45.4835 73.4803C47.6754 72.662 49.5662 71.4993 51.1397 69.9852L49.7529 68.5441ZM44.7951 71.6026C42.846 72.3042 40.6253 72.6641 38.1196 72.6641V74.6641C40.8158 74.6641 43.2711 74.2768 45.4725 73.4843L44.7951 71.6026ZM38.1196 72.6641C34.9907 72.6641 32.4576 72.2448 30.4828 71.4498L29.7359 73.3051C32.0222 74.2256 34.8292 74.6641 38.1196 74.6641V72.6641ZM30.4871 71.4515C28.4967 70.6396 26.9427 69.584 25.7885 68.3044L24.3033 69.6439C25.6947 71.1865 27.5163 72.3997 29.7317 73.3034L30.4871 71.4515ZM25.7957 68.3125C24.6473 67.0109 23.8338 65.5361 23.3495 63.8791L21.4298 64.4402C21.9969 66.3803 22.9543 68.115 24.2961 69.6357L25.7957 68.3125ZM23.3534 63.8928C22.8796 62.1819 22.6426 60.4317 22.6426 58.6396H20.6426C20.6426 60.6106 20.9036 62.5404 21.4259 64.4265L23.3534 63.8928ZM31.6865 70.1113V69.1113H30.8541L30.7031 69.93L31.6865 70.1113ZM44.0547 70.1113L45.038 69.9294L44.8866 69.1113H44.0547V70.1113ZM57.1699 141V142H58.3719L58.1532 140.818L57.1699 141ZM46.2959 141L45.3075 141.152L45.4378 142H46.2959V141ZM44.3452 128.3L45.3336 128.148L45.2033 127.3H44.3452V128.3ZM31.396 128.3V127.3H30.5323L30.4066 128.154L31.396 128.3ZM29.5283 141V142H30.392L30.5177 141.145L29.5283 141ZM18.6128 141L17.6294 140.819L17.4115 142H18.6128V141ZM43.1001 120.207V121.207H44.251L44.0903 120.067L43.1001 120.207ZM38.1196 84.8867L39.1098 84.7471L38.9885 83.8867H38.1196V84.8867ZM37.6631 84.8867V83.8867H36.7952L36.673 84.7459L37.6631 84.8867ZM32.6411 120.207L31.6511 120.066L31.4889 121.207H32.6411V120.207ZM31.6865 71.1113H44.0547V69.1113H31.6865V71.1113ZM43.0714 70.2933L56.1866 141.182L58.1532 140.818L45.038 69.9294L43.0714 70.2933ZM57.1699 140H46.2959V142H57.1699V140ZM47.2843 140.848L45.3336 128.148L43.3568 128.452L45.3075 141.152L47.2843 140.848ZM44.3452 127.3H31.396V129.3H44.3452V127.3ZM30.4066 128.154L28.539 140.855L30.5177 141.145L32.3854 128.445L30.4066 128.154ZM29.5283 140H18.6128V142H29.5283V140ZM19.5962 141.181L32.6699 70.2927L30.7031 69.93L17.6294 140.819L19.5962 141.181ZM44.0903 120.067L39.1098 84.7471L37.1294 85.0263L42.1099 120.346L44.0903 120.067ZM38.1196 83.8867H37.6631V85.8867H38.1196V83.8867ZM36.673 84.7459L31.6511 120.066L33.6312 120.347L38.6531 85.0275L36.673 84.7459ZM32.6411 121.207H43.1001V119.207H32.6411V121.207Z" fill="white" fill-opacity="0.55"/>
</svg>
