<svg width="250" height="140" viewBox="0 0 250 140" fill="none" xmlns="http://www.w3.org/2000/svg">
<path d="M57.1392 72.6641C54.4829 72.6641 52.2555 72.249 50.457 71.4189C48.6585 70.5889 47.2059 69.4683 46.0991 68.0571C45.02 66.6183 44.2453 64.9443 43.7749 63.0352C43.3045 61.126 43.0693 59.1061 43.0693 56.9756C43.0693 55.4814 43.1662 53.8075 43.3599 51.9536C43.5535 50.0721 43.8441 48.1906 44.2314 46.3091H52.8228L52.6982 54.9419C52.6982 56.7681 52.7812 58.3037 52.9473 59.5488C53.1133 60.7663 53.3623 61.7485 53.6943 62.4956C54.054 63.215 54.4967 63.7407 55.0225 64.0728C55.5758 64.3771 56.2399 64.5293 57.0146 64.5293C57.651 64.5293 58.2183 64.4048 58.7163 64.1558C59.242 63.9067 59.6847 63.4779 60.0444 62.8691C60.4041 62.2327 60.6808 61.3888 60.8745 60.3374C61.0682 59.2583 61.165 57.9163 61.165 56.3115L61.2896 1.11133H72.0391V54.8174C72.0391 58.4697 71.624 61.458 70.7939 63.7822C69.9639 66.1064 68.8433 67.9326 67.4321 69.2607C66.0487 70.5612 64.4577 71.4604 62.6592 71.9585C60.8883 72.4289 59.0483 72.6641 57.1392 72.6641ZM91.7119 1.11133H104.08L117.195 72H106.321L104.371 59.2998H91.4214L89.5537 72H78.6382L91.7119 1.11133ZM103.125 51.2065L98.145 15.8867H97.6885L92.6665 51.2065H103.125ZM124.085 1.11133H138.113L144.92 28.5454C145.639 31.589 146.207 34.4943 146.622 37.2612C147.037 40.0005 147.438 42.5876 147.825 45.0225H148.157C148.545 42.5876 148.946 40.0005 149.361 37.2612C149.776 34.4943 150.343 31.589 151.062 28.5454L158.077 1.11133H171.814V72H161.771V48.5503C161.771 44.9533 161.798 41.4946 161.854 38.1743C161.937 34.854 162.033 31.8104 162.144 29.0435C162.255 26.2489 162.379 23.7863 162.518 21.6558C162.656 19.5252 162.78 17.8374 162.891 16.5923H162.103L151.395 62.8691H144.588L133.797 16.5923H133.008C133.119 17.8374 133.243 19.5252 133.382 21.6558C133.52 23.7863 133.645 26.2489 133.755 29.0435C133.866 31.8104 133.949 34.854 134.004 38.1743C134.087 41.4946 134.129 44.9533 134.129 48.5503V72H124.085V1.11133ZM183.934 1.11133H210.206V9.57812H194.683V30.7866H206.678V39.2534H194.683V63.5332H210.621V72H183.934V1.11133ZM215.643 57.6396C215.643 56.1178 215.726 54.7205 215.892 53.4478C216.085 52.1473 216.362 50.75 216.722 49.2559H225.064V52.7007C225.064 54.6099 225.175 56.2977 225.396 57.7642C225.645 59.2306 226.032 60.4757 226.558 61.4995C227.111 62.4956 227.831 63.2565 228.716 63.7822C229.629 64.2803 230.736 64.5293 232.037 64.5293C234.084 64.5293 235.647 63.9759 236.727 62.8691C237.806 61.7347 238.345 60.0884 238.345 57.9302C238.345 56.8234 238.262 55.8135 238.096 54.9004C237.958 53.9596 237.695 53.0327 237.308 52.1196C236.948 51.2065 236.45 50.252 235.813 49.2559C235.177 48.2321 234.361 47.0977 233.365 45.8525L222.159 32.5298C220.167 29.9842 218.631 27.4248 217.552 24.8516C216.473 22.2507 215.933 19.4837 215.933 16.5508C215.933 14.1989 216.293 12.0407 217.012 10.0762C217.759 8.11165 218.825 6.42383 220.208 5.0127C221.591 3.57389 223.293 2.46712 225.313 1.69238C227.361 0.889974 229.671 0.48877 232.244 0.48877C235.371 0.48877 237.972 0.931478 240.047 1.81689C242.15 2.70231 243.824 3.86442 245.069 5.30322C246.314 6.74202 247.186 8.36068 247.684 10.1592C248.209 11.93 248.472 13.7147 248.472 15.5132C248.472 17.035 248.348 18.4461 248.099 19.7466C247.877 21.0194 247.614 22.4305 247.31 23.98H239.009V20.6182C239.009 16.8551 238.47 13.9775 237.391 11.9854C236.312 9.96549 234.555 8.95557 232.12 8.95557C230.1 8.95557 228.592 9.52279 227.596 10.6572C226.6 11.764 226.102 13.2581 226.102 15.1396C226.102 16.1357 226.171 17.035 226.309 17.8374C226.475 18.6398 226.696 19.3869 226.973 20.0786C227.278 20.7427 227.637 21.3929 228.052 22.0293C228.467 22.6657 228.938 23.3298 229.463 24.0215L241.956 39.1289C244.225 42.0895 245.968 44.9395 247.186 47.6787C248.403 50.3903 249.012 53.2679 249.012 56.3115C249.012 58.8294 248.611 61.0983 247.808 63.1182C247.033 65.138 245.913 66.8535 244.446 68.2646C242.98 69.6758 241.209 70.7687 239.134 71.5435C237.059 72.2905 234.721 72.6641 232.12 72.6641C228.91 72.6641 226.24 72.2352 224.109 71.3774C222.007 70.5197 220.319 69.3853 219.046 67.9741C217.801 66.563 216.915 64.9582 216.39 63.1597C215.892 61.3612 215.643 59.5212 215.643 57.6396ZM0.0297852 69.1113H10.3228L15.0957 111.943L15.6353 121.946H16.6729L17.6689 110.698L25.3057 69.1113H33.897L41.2017 110.698L42.0317 121.946H43.1108L43.6089 111.943L47.9668 69.1113H58.3013L48.3818 140H37.4663L31.6143 105.925L29.7881 91.1084H28.958L27.1733 105.925L21.0308 140H10.2397L0.0297852 69.1113ZM73.7822 69.1113H86.1504L99.2656 140H88.3916L86.4409 127.3H73.4917L71.624 140H60.7085L73.7822 69.1113ZM85.1958 119.207L80.2153 83.8867H79.7588L74.7368 119.207H85.1958ZM106.155 69.1113H116.905V131.533H131.556V140H106.155V69.1113ZM138.362 69.1113H149.112V100.073H149.444L161.729 69.1113H172.437L158.741 102.356L173.973 140H162.476L149.444 106.257H149.112V140H138.362V69.1113ZM180.115 69.1113H206.387V77.5781H190.865V98.7866H202.859V107.253H190.865V131.533H206.802V140H180.115V69.1113ZM214.563 69.1113H226.226C227.554 69.1113 229.007 69.1667 230.584 69.2773C232.189 69.388 233.78 69.6647 235.357 70.1074C236.962 70.5225 238.497 71.1589 239.964 72.0166C241.458 72.8743 242.772 74.0503 243.907 75.5444C245.069 77.0386 245.996 78.9201 246.688 81.189C247.379 83.4302 247.725 86.1556 247.725 89.3652V91.1499C247.725 96.5454 246.95 100.945 245.401 104.348C243.851 107.724 241.569 110.159 238.553 111.653L249.925 140H238.553L229.131 113.479H225.105V140H214.563V69.1113ZM226.724 105.718C228.606 105.718 230.197 105.51 231.497 105.095C232.798 104.68 233.849 103.988 234.651 103.02C235.454 102.024 236.035 100.723 236.395 99.1187C236.754 97.4862 236.934 95.4801 236.934 93.1006V87.4976C236.934 85.6714 236.768 84.0942 236.436 82.7661C236.104 81.438 235.537 80.3451 234.734 79.4873C233.96 78.6296 232.922 77.9932 231.622 77.5781C230.321 77.1631 228.689 76.9556 226.724 76.9556H225.105V105.718H226.724Z" fill="white" fill-opacity="0.55"/>
</svg>
