<svg width="344" height="140" viewBox="0 0 344 140" fill="none" xmlns="http://www.w3.org/2000/svg">
<path d="M0.535645 0.111328H10.8286L15.6016 42.9434L16.1411 52.9458H17.1787L18.1748 41.6982L25.8115 0.111328H34.4028L41.7075 41.6982L42.5376 52.9458H43.6167L44.1147 42.9434L48.4727 0.111328H58.8071L48.8877 71H37.9722L32.1201 36.9253L30.2939 22.1084H29.4639L27.6792 36.9253L21.5366 71H10.7456L0.535645 0.111328ZM66.4854 0.111328H92.7573V8.57812H77.2349V29.7866H89.2295V38.2534H77.2349V62.5332H93.1724V71H66.4854V0.111328ZM100.934 0.111328H111.808C113.412 0.111328 115.073 0.166667 116.788 0.277344C118.504 0.388021 120.178 0.62321 121.81 0.98291C123.443 1.34261 124.992 1.88216 126.458 2.60156C127.925 3.29329 129.198 4.23405 130.277 5.42383C131.384 6.61361 132.255 8.09391 132.892 9.86475C133.556 11.6079 133.888 13.7108 133.888 16.1733V19.6182C133.888 21.4997 133.611 23.229 133.058 24.8062C132.532 26.3833 131.826 27.7806 130.941 28.998C130.056 30.1878 129.046 31.1839 127.911 31.9863C126.777 32.7611 125.615 33.2868 124.425 33.5635V33.8955C127.939 34.5319 130.581 36.2059 132.352 38.9175C134.151 41.6014 135.05 45.0462 135.05 49.252V52.8628C135.05 55.436 134.759 57.6772 134.178 59.5864C133.625 61.4679 132.836 63.0866 131.812 64.4424C130.789 65.7705 129.571 66.8634 128.16 67.7212C126.749 68.5789 125.2 69.2568 123.512 69.7549C121.824 70.2253 120.025 70.5573 118.116 70.751C116.207 70.917 114.243 71 112.223 71H100.934V0.111328ZM113.551 30.4507C114.99 30.4507 116.304 30.2847 117.494 29.9526C118.683 29.5929 119.693 29.0534 120.523 28.334C121.381 27.5869 122.031 26.6323 122.474 25.4702C122.944 24.2804 123.18 22.8555 123.18 21.1953V18.29C123.18 16.6299 123.014 15.1634 122.682 13.8906C122.35 12.6178 121.796 11.5387 121.021 10.6533C120.274 9.7679 119.278 9.10384 118.033 8.66113C116.816 8.19076 115.322 7.95557 113.551 7.95557H111.476V30.4507H113.551ZM114.547 63.5293C115.986 63.5293 117.286 63.3494 118.448 62.9897C119.638 62.6024 120.648 62.0213 121.478 61.2466C122.336 60.4442 122.986 59.4342 123.429 58.2168C123.899 56.9993 124.134 55.5605 124.134 53.9004V48.3804C124.134 46.7202 123.968 45.2537 123.636 43.981C123.304 42.6805 122.751 41.6014 121.976 40.7437C121.229 39.8582 120.247 39.1942 119.029 38.7515C117.812 38.2811 116.318 38.0459 114.547 38.0459H111.476V63.5293H114.547ZM5.05957 68.1113H16.2241C17.9119 68.1113 19.6551 68.1667 21.4536 68.2773C23.2798 68.3604 25.0506 68.6509 26.7661 69.1489C28.5093 69.647 30.1418 70.4217 31.6636 71.4731C33.2131 72.4969 34.5688 73.9495 35.731 75.8311C36.8931 77.6849 37.8062 80.0368 38.4702 82.8867C39.1619 85.709 39.5078 89.1676 39.5078 93.2627V113.849C39.5078 117.944 39.1619 121.416 38.4702 124.266C37.8062 127.116 36.8931 129.468 35.731 131.322C34.5688 133.176 33.2131 134.628 31.6636 135.68C30.1418 136.703 28.5093 137.464 26.7661 137.962C25.0506 138.46 23.2798 138.765 21.4536 138.875C19.6551 138.958 17.9119 139 16.2241 139H5.05957V68.1113ZM18.5483 131.488C20.4852 131.488 22.0762 131.239 23.3213 130.741C24.5941 130.243 25.5902 129.371 26.3096 128.126C27.0566 126.853 27.5685 125.138 27.8452 122.979C28.1219 120.794 28.2603 118.041 28.2603 114.72V92.7231C28.2603 89.4028 28.1219 86.6636 27.8452 84.5054C27.5685 82.3195 27.0566 80.604 26.3096 79.3589C25.5902 78.0861 24.5941 77.2007 23.3213 76.7026C22.0762 76.2046 20.4852 75.9556 18.5483 75.9556H15.8091V131.488H18.5483ZM49.1367 68.1113H75.4087V76.5781H59.8862V97.7866H71.8809V106.253H59.8862V130.533H75.8237V139H49.1367V68.1113ZM78.314 68.1113H89.3125L97.1152 124.266H97.5718L105.416 68.1113H116.373L103.465 139H91.1802L78.314 68.1113ZM123.263 68.1113H149.535V76.5781H134.012V97.7866H146.007V106.253H134.012V130.533H149.95V139H123.263V68.1113ZM157.711 68.1113H168.46V130.533H183.111V139H157.711V68.1113ZM205.606 139.623C204.472 139.623 203.241 139.526 201.913 139.332C200.584 139.166 199.27 138.792 197.97 138.211C196.669 137.63 195.41 136.814 194.193 135.763C193.003 134.684 191.938 133.272 190.997 131.529C190.084 129.786 189.351 127.642 188.797 125.096C188.244 122.523 187.967 119.465 187.967 115.924V90.814C187.967 87.2446 188.244 84.201 188.797 81.6831C189.378 79.1375 190.139 77.007 191.08 75.2915C192.021 73.5483 193.086 72.1649 194.276 71.1411C195.493 70.1174 196.752 69.3426 198.053 68.8169C199.381 68.2635 200.695 67.9038 201.996 67.7378C203.296 67.5718 204.5 67.4888 205.606 67.4888C206.658 67.4888 207.82 67.5718 209.093 67.7378C210.393 67.8761 211.68 68.2082 212.953 68.7339C214.253 69.2319 215.512 69.9928 216.729 71.0166C217.947 72.0127 219.026 73.3823 219.967 75.1255C220.908 76.841 221.655 78.9854 222.208 81.5586C222.789 84.1042 223.08 87.1893 223.08 90.814V115.924C223.08 119.438 222.789 122.468 222.208 125.013C221.627 127.531 220.866 129.675 219.925 131.446C218.985 133.189 217.892 134.601 216.646 135.68C215.429 136.731 214.17 137.561 212.87 138.17C211.597 138.751 210.324 139.138 209.051 139.332C207.778 139.526 206.63 139.623 205.606 139.623ZM205.606 131.529C206.658 131.529 207.571 131.349 208.346 130.99C209.148 130.63 209.798 130.007 210.296 129.122C210.822 128.237 211.209 127.075 211.458 125.636C211.735 124.169 211.874 122.329 211.874 120.116V87.8672C211.874 85.5983 211.735 83.703 211.458 82.1812C211.209 80.6593 210.822 79.4419 210.296 78.5288C209.798 77.5881 209.148 76.924 208.346 76.5366C207.571 76.1493 206.658 75.9556 205.606 75.9556C204.527 75.9556 203.587 76.1493 202.784 76.5366C201.982 76.924 201.318 77.5881 200.792 78.5288C200.266 79.4419 199.865 80.6593 199.588 82.1812C199.339 83.703 199.215 85.5983 199.215 87.8672V120.116C199.215 122.329 199.339 124.169 199.588 125.636C199.865 127.075 200.266 128.237 200.792 129.122C201.318 130.007 201.982 130.63 202.784 130.99C203.587 131.349 204.527 131.529 205.606 131.529ZM233.248 68.1113H243.998C245.353 68.1113 246.834 68.1805 248.438 68.3188C250.071 68.4295 251.69 68.7201 253.294 69.1904C254.927 69.6331 256.49 70.3249 257.984 71.2656C259.506 72.2064 260.848 73.493 262.01 75.1255C263.172 76.7303 264.099 78.7502 264.791 81.1851C265.51 83.62 265.87 86.5806 265.87 90.0669V92.5571C265.87 96.3478 265.538 99.599 264.874 102.311C264.238 104.994 263.38 107.263 262.301 109.117C261.222 110.943 259.963 112.41 258.524 113.517C257.113 114.623 255.632 115.467 254.083 116.048C252.561 116.602 251.012 116.975 249.435 117.169C247.885 117.335 246.419 117.418 245.035 117.418H243.998V139H233.248V68.1113ZM244.537 109.532C246.474 109.532 248.106 109.256 249.435 108.702C250.763 108.121 251.814 107.236 252.589 106.046C253.391 104.828 253.958 103.279 254.291 101.397C254.65 99.4883 254.83 97.2056 254.83 94.5493V88.1577C254.83 86.0549 254.678 84.2425 254.374 82.7207C254.069 81.1712 253.516 79.8984 252.713 78.9023C251.939 77.9062 250.887 77.173 249.559 76.7026C248.231 76.2046 246.557 75.9556 244.537 75.9556H243.998V109.532H244.537ZM274.005 68.1113H300.277V76.5781H284.754V97.7866H296.749V106.253H284.754V130.533H300.692V139H274.005V68.1113ZM308.453 68.1113H320.116C321.444 68.1113 322.896 68.1667 324.474 68.2773C326.078 68.388 327.669 68.6647 329.247 69.1074C330.851 69.5225 332.387 70.1589 333.854 71.0166C335.348 71.8743 336.662 73.0503 337.796 74.5444C338.958 76.0386 339.885 77.9201 340.577 80.189C341.269 82.4302 341.615 85.1556 341.615 88.3652V90.1499C341.615 95.5454 340.84 99.9448 339.291 103.348C337.741 106.724 335.458 109.159 332.442 110.653L343.814 139H332.442L323.021 112.479H318.995V139H308.453V68.1113ZM320.614 104.718C322.495 104.718 324.086 104.51 325.387 104.095C326.687 103.68 327.739 102.988 328.541 102.02C329.343 101.024 329.924 99.7235 330.284 98.1187C330.644 96.4862 330.824 94.4801 330.824 92.1006V86.4976C330.824 84.6714 330.658 83.0942 330.326 81.7661C329.994 80.438 329.426 79.3451 328.624 78.4873C327.849 77.6296 326.812 76.9932 325.511 76.5781C324.211 76.1631 322.578 75.9556 320.614 75.9556H318.995V104.718H320.614Z" fill="white" fill-opacity="0.55"/>
</svg>
